<svg version="1.1" id="Layer_1" xmlns="http://www.w3.org/2000/svg" xmlns:xlink="http://www.w3.org/1999/xlink" x="0px" y="0px"
	 width="100%" viewBox="0 0 432 448" enable-background="new 0 0 432 448" xml:space="preserve">
<path fill="#000000" opacity="1.000000" stroke="none" 
	d="
M191.334076,431.107117 
	C164.644333,426.890900 139.952957,418.431274 117.209358,404.523712 
	C69.047394,375.072998 37.744942,332.880951 24.904568,278.095978 
	C-0.217973,170.907654 61.662289,66.330681 165.525513,36.187885 
	C187.858261,29.706560 210.727036,27.581905 234.085052,29.491007 
	C297.287842,34.656715 347.630035,62.450245 384.928528,113.774925 
	C385.905182,115.118851 386.777924,116.545341 387.604980,117.987312 
	C387.911224,118.521225 387.945984,119.210846 388.095703,119.794815 
	C386.651672,121.700150 384.542480,121.804413 382.696869,122.358910 
	C358.649353,129.583694 334.584747,136.751770 310.537140,143.976334 
	C301.757660,146.613937 300.346466,148.591812 300.344574,157.926971 
	C300.334595,206.758713 300.335388,255.590439 300.332428,304.422180 
	C300.332306,306.391846 300.332397,308.361511 300.332397,310.251373 
	C297.588837,311.295135 295.709045,309.753693 293.659546,309.526306 
	C270.425293,306.948486 243.370651,321.000549 235.432968,345.798615 
	C230.876328,360.033997 237.213165,372.325439 251.395630,377.194244 
	C267.449432,382.705475 282.369568,378.818878 296.149811,370.215881 
	C307.536194,363.107361 316.830963,353.884583 320.092896,340.146210 
	C320.622131,337.917175 320.627960,335.529236 320.629364,333.214600 
	C320.658997,284.216187 320.733002,235.217453 320.535706,186.219833 
	C320.515137,181.109909 322.177582,179.024734 327.002197,177.630478 
	C352.083191,170.382584 377.079529,162.838165 402.050446,155.217056 
	C405.635406,154.122910 407.254883,154.561218 408.652588,158.346237 
	C416.074097,178.444443 420.735931,199.040405 421.393158,220.524719 
	C424.088257,308.625397 384.629974,372.043182 307.831451,412.987427 
	C285.171844,425.068054 260.311218,430.594818 234.589920,432.561737 
	C220.184814,433.663269 206.014908,432.480560 191.334076,431.107117 
M248.201462,284.689911 
	C268.238892,273.443268 280.382874,256.592651 281.479004,233.511841 
	C283.413971,192.769730 248.170090,162.094559 208.127411,169.466614 
	C177.448853,175.114655 152.180984,203.908127 158.920227,241.458817 
	C166.300888,282.583557 209.967239,303.433716 248.201462,284.689911 
z"/>
<path fill="#000000" opacity="1.000000" stroke="none" 
	d="
M201.761566,216.897308 
	C209.930405,207.091202 220.919632,204.697250 231.482071,210.162872 
	C240.663666,214.913971 245.502426,226.031113 242.720093,235.982544 
	C239.636292,247.012222 229.885880,254.188354 218.413483,253.248672 
	C209.956070,252.555939 203.185303,248.576691 199.392090,240.665451 
	C195.470947,232.487442 196.189743,224.594757 201.761566,216.897308 
z"/>
</svg>