<svg xmlns="http://www.w3.org/2000/svg" viewBox="0 0 432 448" xml:space="preserve"><path d="M191.334 431.107c-26.69-4.216-51.381-12.676-74.125-26.583-48.162-29.451-79.464-71.643-92.304-126.428C-.218 170.908 61.662 66.331 165.525 36.188c22.333-6.481 45.202-8.606 68.56-6.697 63.203 5.166 113.545 32.96 150.844 84.284.976 1.344 1.849 2.77 2.676 4.212.306.534.341 1.224.49 1.808-1.443 1.905-3.553 2.01-5.398 2.564-24.048 7.225-48.112 14.393-72.16 21.617-8.78 2.638-10.19 4.616-10.192 13.951-.01 48.832-.01 97.663-.013 146.495v5.83c-2.743 1.043-4.623-.498-6.672-.726-23.235-2.578-50.29 11.475-58.227 36.273-4.557 14.235 1.78 26.526 15.963 31.395 16.053 5.511 30.974 1.625 44.754-6.978 11.386-7.109 20.681-16.331 23.943-30.07.53-2.229.535-4.617.536-6.931.03-48.999.104-97.998-.093-146.995-.02-5.11 1.642-7.195 6.466-8.59 25.081-7.247 50.078-14.792 75.048-22.413 3.585-1.094 5.205-.656 6.603 3.13 7.421 20.097 12.083 40.693 12.74 62.178 2.695 88.1-36.763 151.518-113.562 192.462-22.66 12.081-47.52 17.608-73.241 19.575-14.405 1.101-28.575-.081-43.256-1.455m56.867-146.417c20.038-11.247 32.182-28.097 33.278-51.178 1.935-40.742-33.309-71.417-73.352-64.045-30.678 5.648-55.946 34.441-49.207 71.992 7.38 41.125 51.047 61.975 89.281 43.23"/><path d="M201.762 216.897c8.168-9.806 19.158-12.2 29.72-6.734 9.182 4.751 14.02 15.868 11.238 25.82-3.084 11.03-12.834 18.205-24.307 17.266-8.457-.693-15.228-4.672-19.02-12.584-3.922-8.178-3.203-16.07 2.369-23.768"/></svg>
